<mxfile host="app.diagrams.net" modified="2022-11-14T10:21:52.420Z" agent="5.0 (Macintosh; Intel Mac OS X 10_15_7) AppleWebKit/537.36 (KHTML, like Gecko) Chrome/107.0.0.0 Safari/537.36" etag="3AwJPrvUhxIS_JQuZzjp" version="20.5.3" type="github">
  <diagram id="d5vTLCQ3zvk57QSYjgUG" name="Page-1">
    <mxGraphModel dx="1426" dy="794" grid="1" gridSize="10" guides="1" tooltips="1" connect="1" arrows="1" fold="1" page="1" pageScale="1" pageWidth="850" pageHeight="1100" math="0" shadow="0">
      <root>
        <mxCell id="0" />
        <mxCell id="1" parent="0" />
        <mxCell id="bBXUotOtVaPRamKkNtrz-1" value="" style="ellipse;whiteSpace=wrap;html=1;aspect=fixed;" vertex="1" parent="1">
          <mxGeometry x="330" y="270" width="30" height="30" as="geometry" />
        </mxCell>
        <mxCell id="bBXUotOtVaPRamKkNtrz-2" value="" style="ellipse;whiteSpace=wrap;html=1;aspect=fixed;" vertex="1" parent="1">
          <mxGeometry x="400" y="260" width="30" height="30" as="geometry" />
        </mxCell>
        <mxCell id="bBXUotOtVaPRamKkNtrz-3" value="" style="ellipse;whiteSpace=wrap;html=1;aspect=fixed;" vertex="1" parent="1">
          <mxGeometry x="380" y="320" width="30" height="30" as="geometry" />
        </mxCell>
        <mxCell id="bBXUotOtVaPRamKkNtrz-4" value="" style="ellipse;whiteSpace=wrap;html=1;aspect=fixed;" vertex="1" parent="1">
          <mxGeometry x="450" y="300" width="30" height="30" as="geometry" />
        </mxCell>
        <mxCell id="bBXUotOtVaPRamKkNtrz-5" value="" style="ellipse;whiteSpace=wrap;html=1;aspect=fixed;" vertex="1" parent="1">
          <mxGeometry x="430" y="360" width="30" height="30" as="geometry" />
        </mxCell>
        <mxCell id="bBXUotOtVaPRamKkNtrz-6" value="" style="ellipse;whiteSpace=wrap;html=1;aspect=fixed;" vertex="1" parent="1">
          <mxGeometry x="330" y="370" width="30" height="30" as="geometry" />
        </mxCell>
        <mxCell id="bBXUotOtVaPRamKkNtrz-7" value="" style="ellipse;whiteSpace=wrap;html=1;aspect=fixed;" vertex="1" parent="1">
          <mxGeometry x="220" y="360" width="30" height="30" as="geometry" />
        </mxCell>
        <mxCell id="bBXUotOtVaPRamKkNtrz-8" value="" style="ellipse;whiteSpace=wrap;html=1;aspect=fixed;" vertex="1" parent="1">
          <mxGeometry x="270" y="410" width="30" height="30" as="geometry" />
        </mxCell>
        <mxCell id="bBXUotOtVaPRamKkNtrz-9" value="" style="ellipse;whiteSpace=wrap;html=1;aspect=fixed;" vertex="1" parent="1">
          <mxGeometry x="370" y="420" width="30" height="30" as="geometry" />
        </mxCell>
        <mxCell id="bBXUotOtVaPRamKkNtrz-10" value="" style="ellipse;whiteSpace=wrap;html=1;aspect=fixed;" vertex="1" parent="1">
          <mxGeometry x="440" y="420" width="30" height="30" as="geometry" />
        </mxCell>
        <mxCell id="bBXUotOtVaPRamKkNtrz-11" value="" style="endArrow=none;html=1;rounded=0;strokeWidth=1.5;exitX=0;exitY=0;exitDx=0;exitDy=0;entryX=1;entryY=1;entryDx=0;entryDy=0;" edge="1" parent="1" source="bBXUotOtVaPRamKkNtrz-3" target="bBXUotOtVaPRamKkNtrz-1">
          <mxGeometry width="50" height="50" relative="1" as="geometry">
            <mxPoint x="115" y="440" as="sourcePoint" />
            <mxPoint x="340" y="395" as="targetPoint" />
          </mxGeometry>
        </mxCell>
        <mxCell id="bBXUotOtVaPRamKkNtrz-12" value="" style="endArrow=none;html=1;rounded=0;strokeWidth=1.5;exitX=0;exitY=0.5;exitDx=0;exitDy=0;entryX=1;entryY=0.5;entryDx=0;entryDy=0;" edge="1" parent="1" source="bBXUotOtVaPRamKkNtrz-2" target="bBXUotOtVaPRamKkNtrz-1">
          <mxGeometry width="50" height="50" relative="1" as="geometry">
            <mxPoint x="394.3933982822018" y="334.3933982822018" as="sourcePoint" />
            <mxPoint x="365.6066017177982" y="305.6066017177982" as="targetPoint" />
          </mxGeometry>
        </mxCell>
        <mxCell id="bBXUotOtVaPRamKkNtrz-13" value="" style="endArrow=none;html=1;rounded=0;strokeWidth=1.5;entryX=1;entryY=0;entryDx=0;entryDy=0;" edge="1" parent="1" target="bBXUotOtVaPRamKkNtrz-3">
          <mxGeometry width="50" height="50" relative="1" as="geometry">
            <mxPoint x="410" y="290" as="sourcePoint" />
            <mxPoint x="370" y="295" as="targetPoint" />
          </mxGeometry>
        </mxCell>
        <mxCell id="bBXUotOtVaPRamKkNtrz-14" value="" style="endArrow=none;html=1;rounded=0;strokeWidth=1.5;entryX=0;entryY=0;entryDx=0;entryDy=0;exitX=1;exitY=1;exitDx=0;exitDy=0;" edge="1" parent="1" source="bBXUotOtVaPRamKkNtrz-2" target="bBXUotOtVaPRamKkNtrz-4">
          <mxGeometry width="50" height="50" relative="1" as="geometry">
            <mxPoint x="420" y="300" as="sourcePoint" />
            <mxPoint x="415.6066017177982" y="334.3933982822018" as="targetPoint" />
          </mxGeometry>
        </mxCell>
        <mxCell id="bBXUotOtVaPRamKkNtrz-15" value="" style="endArrow=none;html=1;rounded=0;strokeWidth=1.5;entryX=1;entryY=1;entryDx=0;entryDy=0;exitX=0;exitY=0;exitDx=0;exitDy=0;" edge="1" parent="1" source="bBXUotOtVaPRamKkNtrz-5" target="bBXUotOtVaPRamKkNtrz-3">
          <mxGeometry width="50" height="50" relative="1" as="geometry">
            <mxPoint x="420" y="300" as="sourcePoint" />
            <mxPoint x="415.6066017177982" y="334.3933982822018" as="targetPoint" />
          </mxGeometry>
        </mxCell>
        <mxCell id="bBXUotOtVaPRamKkNtrz-16" value="" style="endArrow=none;html=1;rounded=0;strokeWidth=1.5;entryX=0.5;entryY=1;entryDx=0;entryDy=0;exitX=1;exitY=0;exitDx=0;exitDy=0;" edge="1" parent="1" source="bBXUotOtVaPRamKkNtrz-5" target="bBXUotOtVaPRamKkNtrz-4">
          <mxGeometry width="50" height="50" relative="1" as="geometry">
            <mxPoint x="435.6066017177982" y="295.6066017177982" as="sourcePoint" />
            <mxPoint x="464.3933982822018" y="314.3933982822018" as="targetPoint" />
          </mxGeometry>
        </mxCell>
        <mxCell id="bBXUotOtVaPRamKkNtrz-17" value="" style="endArrow=none;html=1;rounded=0;strokeWidth=1.5;exitX=0.5;exitY=1;exitDx=0;exitDy=0;" edge="1" parent="1" source="bBXUotOtVaPRamKkNtrz-5" target="bBXUotOtVaPRamKkNtrz-10">
          <mxGeometry width="50" height="50" relative="1" as="geometry">
            <mxPoint x="465.6066017177982" y="374.3933982822018" as="sourcePoint" />
            <mxPoint x="475" y="340" as="targetPoint" />
          </mxGeometry>
        </mxCell>
        <mxCell id="bBXUotOtVaPRamKkNtrz-18" value="" style="endArrow=none;html=1;rounded=0;strokeWidth=1.5;exitX=0;exitY=0.5;exitDx=0;exitDy=0;entryX=1;entryY=0.5;entryDx=0;entryDy=0;" edge="1" parent="1" source="bBXUotOtVaPRamKkNtrz-10" target="bBXUotOtVaPRamKkNtrz-9">
          <mxGeometry width="50" height="50" relative="1" as="geometry">
            <mxPoint x="455" y="400" as="sourcePoint" />
            <mxPoint x="461.74604313271993" y="430.3571940972397" as="targetPoint" />
          </mxGeometry>
        </mxCell>
        <mxCell id="bBXUotOtVaPRamKkNtrz-19" value="" style="endArrow=none;html=1;rounded=0;strokeWidth=1.5;exitX=0;exitY=0.5;exitDx=0;exitDy=0;entryX=1;entryY=0.5;entryDx=0;entryDy=0;" edge="1" parent="1" source="bBXUotOtVaPRamKkNtrz-5" target="bBXUotOtVaPRamKkNtrz-6">
          <mxGeometry width="50" height="50" relative="1" as="geometry">
            <mxPoint x="450" y="445" as="sourcePoint" />
            <mxPoint x="410" y="445" as="targetPoint" />
          </mxGeometry>
        </mxCell>
        <mxCell id="bBXUotOtVaPRamKkNtrz-20" value="" style="endArrow=none;html=1;rounded=0;strokeWidth=1.5;exitX=0;exitY=0;exitDx=0;exitDy=0;" edge="1" parent="1" source="bBXUotOtVaPRamKkNtrz-9">
          <mxGeometry width="50" height="50" relative="1" as="geometry">
            <mxPoint x="440" y="385" as="sourcePoint" />
            <mxPoint x="350" y="400" as="targetPoint" />
          </mxGeometry>
        </mxCell>
        <mxCell id="bBXUotOtVaPRamKkNtrz-21" value="" style="endArrow=none;html=1;rounded=0;strokeWidth=1.5;exitX=0;exitY=0.5;exitDx=0;exitDy=0;entryX=1;entryY=1;entryDx=0;entryDy=0;" edge="1" parent="1" source="bBXUotOtVaPRamKkNtrz-9" target="bBXUotOtVaPRamKkNtrz-8">
          <mxGeometry width="50" height="50" relative="1" as="geometry">
            <mxPoint x="384.3933982822018" y="434.3933982822018" as="sourcePoint" />
            <mxPoint x="360" y="410" as="targetPoint" />
          </mxGeometry>
        </mxCell>
        <mxCell id="bBXUotOtVaPRamKkNtrz-22" value="" style="endArrow=none;html=1;rounded=0;strokeWidth=1.5;exitX=0;exitY=0;exitDx=0;exitDy=0;entryX=1;entryY=1;entryDx=0;entryDy=0;" edge="1" parent="1" source="bBXUotOtVaPRamKkNtrz-8" target="bBXUotOtVaPRamKkNtrz-7">
          <mxGeometry width="50" height="50" relative="1" as="geometry">
            <mxPoint x="380" y="445" as="sourcePoint" />
            <mxPoint x="305.6066017177982" y="445.6066017177982" as="targetPoint" />
          </mxGeometry>
        </mxCell>
        <mxCell id="bBXUotOtVaPRamKkNtrz-23" value="" style="endArrow=none;html=1;rounded=0;strokeWidth=1.5;exitX=0;exitY=0.5;exitDx=0;exitDy=0;entryX=1;entryY=0.5;entryDx=0;entryDy=0;" edge="1" parent="1" source="bBXUotOtVaPRamKkNtrz-6" target="bBXUotOtVaPRamKkNtrz-7">
          <mxGeometry width="50" height="50" relative="1" as="geometry">
            <mxPoint x="284.3933982822018" y="424.3933982822018" as="sourcePoint" />
            <mxPoint x="255.60660171779818" y="395.6066017177982" as="targetPoint" />
          </mxGeometry>
        </mxCell>
        <mxCell id="bBXUotOtVaPRamKkNtrz-24" value="" style="endArrow=none;html=1;rounded=0;strokeWidth=1.5;exitX=1;exitY=0;exitDx=0;exitDy=0;entryX=0;entryY=1;entryDx=0;entryDy=0;" edge="1" parent="1" source="bBXUotOtVaPRamKkNtrz-8" target="bBXUotOtVaPRamKkNtrz-6">
          <mxGeometry width="50" height="50" relative="1" as="geometry">
            <mxPoint x="384.3933982822018" y="434.3933982822018" as="sourcePoint" />
            <mxPoint x="360" y="410" as="targetPoint" />
          </mxGeometry>
        </mxCell>
        <mxCell id="bBXUotOtVaPRamKkNtrz-25" value="&lt;font style=&quot;font-size: 16px;&quot;&gt;Blockchain and Nodes&lt;/font&gt;" style="text;html=1;strokeColor=none;fillColor=none;align=center;verticalAlign=middle;whiteSpace=wrap;rounded=0;" vertex="1" parent="1">
          <mxGeometry x="290" y="460" width="170" height="30" as="geometry" />
        </mxCell>
      </root>
    </mxGraphModel>
  </diagram>
</mxfile>
